<?xml version="1.0" encoding="UTF-8"?>
<svg width="680px" height="680px" viewBox="0 0 680 680" version="1.1" xmlns="http://www.w3.org/2000/svg" xmlns:xlink="http://www.w3.org/1999/xlink">
    <title>circle / orange</title>
    <defs>
        <path d="M240.007304,-1.38745032e-14 C372.551812,-1.38745032e-14 480,107.457127 480,240.003652 C480,372.550177 372.551812,480 240.007304,480 C107.455492,480 0,372.550177 0,240.003652 C0,107.457127 107.455492,-1.38745032e-14 240.007304,-1.38745032e-14 Z M240.007016,120 C173.723908,120 120,173.727783 120,240 C120,306.265201 173.723908,360 240.007016,360 C306.283108,360 360,306.265201 360,240 C360,173.727783 306.283108,120 240.007016,120 Z" id="path-1"></path>
    </defs>
    <g id="circle-/-orange" stroke="none" stroke-width="1" fill="none" fill-rule="evenodd">
        <g id="circle" transform="translate(340.000000, 340.000000) rotate(-270.000000) translate(-340.000000, -340.000000) translate(100.000000, 100.000000)">
            <mask id="mask-2" fill="white">
                <use xlink:href="#path-1"></use>
            </mask>
            <use id="Combined-Shape" fill="#FE5000" xlink:href="#path-1"></use>
        </g>
    </g>
</svg>
